<?xml version="1.0" standalone="no"?>
<!DOCTYPE svg PUBLIC "-//W3C//DTD SVG 1.1//EN" "http://www.w3.org/Graphics/SVG/1.1/DTD/svg11.dtd" >
<svg xmlns="http://www.w3.org/2000/svg">
<metadata></metadata>
<defs>
<font id="kulturistaregular" horiz-adv-x="1097" >
<font-face units-per-em="2048" ascent="1638" descent="-410" />
<missing-glyph horiz-adv-x="614" />
<glyph unicode="&#xfb01;" horiz-adv-x="1368" d="M41 907v137h225v93q0 67 5 117.5t18 98.5t36 80t59.5 57.5t87 36t119.5 9.5t157 -16v-131q-68 9 -117.5 10t-86 -8.5t-59 -26.5t-36 -48t-18.5 -69.5t-5 -93.5v-109h666v-907h194v-137h-538v137h184v770h-506v-770h184v-137h-538v137h194v770h-225zM932 1249v232h160 v-232h-160z" />
<glyph unicode="&#xfb02;" horiz-adv-x="1368" d="M41 907v137h225v93q0 66 6.5 114.5t24 97.5t51 82.5t85 60.5t129 39.5t179.5 12.5q135 0 351 -28v-1379h194v-137h-538v137h184v1258q-111 12 -195 12q-176 0 -243.5 -56.5t-67.5 -197.5v-109h322v-137h-322v-770h184v-137h-538v137h194v770h-225z" />
<glyph horiz-adv-x="0" />
<glyph horiz-adv-x="682" />
<glyph unicode=" "  horiz-adv-x="614" />
<glyph unicode="&#x09;" horiz-adv-x="614" />
<glyph unicode="&#xa0;" horiz-adv-x="614" />
<glyph unicode="!" horiz-adv-x="528" d="M184 0v231h160v-231h-160zM184 399v1035h160v-1035h-160z" />
<glyph unicode="&#x22;" horiz-adv-x="747" d="M143 1434h181l-21 -568h-139zM426 1434h178l-20 -568h-138z" />
<glyph unicode="#" horiz-adv-x="1497" d="M49 408v129h322l114 362h-272v127h313l131 408h142l-131 -408h360l131 408h139l-131 -408h281v-127h-322l-114 -362h272v-129h-313l-131 -408h-140l129 408h-360l-129 -408h-141l131 408h-281zM510 537h360l117 362h-360z" />
<glyph unicode="$" horiz-adv-x="1304" d="M133 0v436h170q3 -148 100 -228.5t265 -80.5q156 0 242.5 64.5t86.5 187.5q0 55 -17.5 95.5t-45 67t-77.5 47t-97.5 32t-122.5 24.5q-121 21 -204.5 50t-150.5 77t-99.5 121.5t-32.5 175.5q0 179 111 277t310 106v227h160v-235q176 -30 273 -141l20 131h133v-435h-170 q-3 149 -93 228.5t-255 79.5q-155 0 -235 -61t-80 -177q0 -53 16.5 -94t44 -67.5t74 -47t93.5 -33t116 -24.5q99 -17 171 -37.5t137.5 -54t106.5 -78t64.5 -109.5t23.5 -149q0 -186 -118 -286.5t-322 -108.5v-226h-160v236q-185 29 -284 143l-21 -133h-133z" />
<glyph unicode="%" horiz-adv-x="1687" d="M143 918v280q0 118 72 182t197 64t196.5 -64t71.5 -182v-280q0 -120 -71.5 -184t-196.5 -64t-197 64t-72 184zM270 918q0 -66 38 -102t104 -36q68 0 105.5 36t37.5 102v280q0 66 -37.5 101.5t-105.5 35.5q-67 0 -104.5 -36t-37.5 -101v-280zM279 0l987 1434h143 l-987 -1434h-143zM1008 238v280q0 118 71.5 182t196.5 64t196.5 -64t71.5 -182v-280q0 -120 -71.5 -184t-196.5 -64t-196.5 64t-71.5 184zM1133 238q0 -66 37.5 -102t105.5 -36q66 0 103.5 36t37.5 102v280q0 66 -37.5 101.5t-103.5 35.5q-68 0 -105.5 -35.5t-37.5 -101.5 v-280z" />
<glyph unicode="&#x26;" horiz-adv-x="1331" d="M133 360q0 128 64 220.5t182 140.5q-225 87 -225 350q0 178 121 280.5t319 102.5q240 0 360 -123l19 103h133v-410h-170v35q0 114 -81.5 181t-223.5 67q-145 0 -224 -70t-79 -193q0 -113 76 -182t212 -69h715v-148h-225v-645h-127l-27 152q-60 -81 -160 -126.5 t-227 -45.5q-199 0 -315.5 105.5t-116.5 274.5zM307 379q0 -122 77 -187t222 -65q148 0 239 77.5t91 198.5v242h-324q-139 0 -222 -72t-83 -194z" />
<glyph unicode="'" horiz-adv-x="466" d="M143 1434h181l-21 -568h-139z" />
<glyph unicode="(" horiz-adv-x="598" d="M113 715q0 557 323 948h162q-154 -192 -240 -432.5t-86 -515.5q0 -271 86.5 -512.5t239.5 -431.5h-162q-323 391 -323 944z" />
<glyph unicode=")" horiz-adv-x="598" d="M0 -229q154 192 240 433.5t86 516.5q0 271 -86.5 511.5t-239.5 430.5h162q323 -386 323 -942t-323 -950h-162z" />
<glyph unicode="*" horiz-adv-x="942" d="M61 1206l37 113l328 -123l-14 354h116l-12 -352l328 121l37 -111l-336 -96l217 -274l-94 -68l-197 293l-197 -293l-94 68l215 274z" />
<glyph unicode="+" horiz-adv-x="1048" d="M61 649v137h390v406h145v-406h391v-137h-391v-401h-145v401h-390z" />
<glyph unicode="," horiz-adv-x="466" d="M133 -236l21 488h180l-82 -488h-119z" />
<glyph unicode="-" horiz-adv-x="530" d="M61 455v137h408v-137h-408z" />
<glyph unicode="." horiz-adv-x="466" d="M143 0v252h181v-252h-181z" />
<glyph unicode="/" horiz-adv-x="636" d="M-66 -229l627 1892h141l-626 -1892h-142z" />
<glyph unicode="0" horiz-adv-x="1273" d="M143 436v561q0 219 131.5 338t364.5 119q230 0 360.5 -119t130.5 -338v-561q0 -219 -131 -337.5t-364 -118.5q-230 0 -361 118.5t-131 337.5zM313 436q0 -147 85 -228t237 -81q154 0 240 81t86 228v561q0 147 -85.5 228.5t-236.5 81.5q-154 0 -240 -81.5t-86 -228.5v-561 z" />
<glyph unicode="1" horiz-adv-x="948" d="M102 0v147h318v1115l-318 -228v172l318 228h170v-1287h297v-147h-785z" />
<glyph unicode="2" horiz-adv-x="1232" d="M143 0v147l635 629q137 134 137 283q0 118 -80.5 183t-216.5 65q-141 0 -223 -72.5t-82 -216.5v-66h-170v482h133l21 -129q63 74 155.5 111.5t200.5 37.5q190 0 311 -103.5t121 -287.5q0 -195 -190 -385l-530 -531h745v-147h-967z" />
<glyph unicode="3" horiz-adv-x="1232" d="M133 367v55h170v-39q0 -121 80.5 -188.5t228.5 -67.5q147 0 225 70t78 194q0 120 -80 187t-219 67h-114v148h114q138 0 213.5 69t75.5 182q0 123 -76.5 193t-220.5 70q-145 0 -225 -74t-80 -195v-24h-170v420h133l21 -125q63 69 155.5 107t198.5 38q196 2 317 -105 t121 -288q0 -124 -58 -211t-169 -131q238 -83 238 -344q0 -184 -125 -289.5t-353 -105.5q-227 0 -353 104.5t-126 282.5z" />
<glyph unicode="4" horiz-adv-x="1150" d="M61 395v148l459 891h178l-465 -891h410v321h168v-321h289v-148h-289v-248h195v-147h-557v147h194v248h-582z" />
<glyph unicode="5" horiz-adv-x="1232" d="M143 393v4h170v-12q0 -122 80.5 -190t222.5 -68q146 0 226 82.5t80 247.5q0 166 -79.5 248.5t-224.5 82.5q-220 0 -292 -163h-164l63 809h793v-148h-660l-43 -483q129 123 328 123q96 0 176.5 -28.5t141.5 -85t95 -148t34 -209.5q0 -230 -125.5 -352.5t-348.5 -122.5 q-221 0 -347 108t-126 305z" />
<glyph unicode="6" horiz-adv-x="1243" d="M143 422v614q0 191 124.5 304.5t318.5 113.5q115 0 208 -38.5t152 -108.5l21 127h133v-404h-168v21q0 119 -84.5 187.5t-224.5 68.5q-146 0 -228 -70.5t-82 -192.5v-319q120 139 342 139q206 0 325.5 -118t119.5 -324q0 -204 -128 -323t-349 -119q-222 0 -351 119 t-129 323zM313 426q0 -139 82.5 -219t227.5 -80q144 0 226.5 80t82.5 219q0 143 -80 222t-229 79q-146 0 -228 -80.5t-82 -220.5z" />
<glyph unicode="7" horiz-adv-x="1110" d="M72 1024v410h966v-127l-608 -1307h-186l618 1286h-620v-262h-170z" />
<glyph unicode="8" horiz-adv-x="1243" d="M123 379q0 125 60.5 216.5t174.5 137.5q-98 46 -151 132.5t-53 201.5q0 179 124 283t343 104q223 0 346 -103t123 -284q0 -114 -53 -200.5t-152 -133.5q115 -44 175 -135.5t60 -218.5q0 -185 -129 -293.5t-368 -108.5q-240 0 -370 107.5t-130 294.5zM293 393 q0 -124 86 -195t244 -71q157 0 243 71.5t86 194.5q0 125 -86 195.5t-245 70.5q-157 0 -242.5 -71t-85.5 -195zM324 1053q0 -119 78.5 -186.5t220.5 -67.5q141 0 220 68t79 186q0 119 -78.5 186.5t-222.5 67.5q-140 0 -218.5 -68t-78.5 -186z" />
<glyph unicode="9" horiz-adv-x="1243" d="M143 371v32h170v-16q0 -122 81 -191t229 -69q145 0 227 71.5t82 198.5v314q-121 -140 -342 -140q-206 0 -326.5 118.5t-120.5 324.5q0 203 129 321.5t351 118.5q221 0 349 -118.5t128 -321.5v-617q0 -193 -124.5 -305t-352.5 -112q-227 0 -353.5 105.5t-126.5 285.5z M313 1008q0 -143 80.5 -221t229.5 -78q144 0 226.5 80t82.5 219t-82.5 219t-226.5 80q-145 0 -227.5 -80t-82.5 -219z" />
<glyph unicode=":" horiz-adv-x="466" d="M143 0v252h181v-252h-181zM143 815v250h181v-250h-181z" />
<glyph unicode=";" horiz-adv-x="466" d="M133 -236l21 488h180l-82 -488h-119zM143 815v250h181v-250h-181z" />
<glyph unicode="&#x3c;" horiz-adv-x="1048" d="M61 649v139l926 363v-152l-754 -280l754 -279v-153z" />
<glyph unicode="=" horiz-adv-x="1048" d="M61 393v137h926v-137h-926zM61 905v137h926v-137h-926z" />
<glyph unicode="&#x3e;" horiz-adv-x="1048" d="M61 287v153l754 279l-754 280v152l926 -363v-139z" />
<glyph unicode="?" horiz-adv-x="1284" d="M143 1004v49q0 186 134 293.5t364 107.5q232 0 366 -107.5t134 -293.5q0 -171 -112 -276t-308 -122v-256h-160v387h80q159 0 249.5 71.5t90.5 195.5q0 123 -90.5 193.5t-249.5 70.5q-158 0 -248 -70.5t-90 -193.5v-49h-160zM561 0v231h160v-231h-160z" />
<glyph unicode="@" horiz-adv-x="2127" d="M102 315q0 201 57 380.5t161 316.5t244 237.5t310.5 152.5t356.5 52q372 0 583 -196.5t211 -536.5q0 -191 -59.5 -355.5t-168.5 -265t-243 -100.5q-92 0 -156.5 39.5t-88.5 116.5q-129 -176 -375 -176q-182 0 -270 111.5t-54 301.5l49 283q34 189 149 289t296 100 q111 0 192.5 -38.5t122.5 -111.5l45 129h123l-131 -751q-13 -74 18 -116t95 -42q88 0 161 94t110.5 227t37.5 265q0 278 -173 439t-474 161q-203 0 -382.5 -72.5t-312 -201.5t-209.5 -318.5t-77 -411.5q0 -280 172 -441t477 -161q244 0 457 109l51 -129q-239 -115 -508 -115 q-373 0 -585 197t-212 538zM766 383q-22 -120 38 -193t177 -73q128 0 219.5 74.5t114.5 201.5l47 271q21 120 -48.5 192t-197.5 72q-124 0 -199.5 -62t-97.5 -180z" />
<glyph unicode="A" horiz-adv-x="1574" d="M20 0v147h179l489 1287h207l489 -1287h170v-147h-536v147h186l-114 293h-613l-112 -293h194v-147h-539zM526 588h516l-258 676z" />
<glyph unicode="B" horiz-adv-x="1355" d="M102 0v147h195v1139h-195v148h740q192 0 296.5 -96t104.5 -281q0 -238 -180 -330q102 -39 156.5 -127.5t54.5 -220.5q0 -186 -104.5 -282.5t-297.5 -96.5h-770zM467 147h377q127 0 191.5 63t64.5 185q0 123 -64 186.5t-190 63.5h-379v-498zM467 793h346q256 0 256 247 q0 121 -64.5 183.5t-189.5 62.5h-348v-493z" />
<glyph unicode="C" horiz-adv-x="1325" d="M123 494v446q0 241 142 377.5t390 136.5q281 0 404 -160l20 140h133v-461h-170v8q0 153 -97.5 239.5t-268.5 86.5q-181 0 -282 -96.5t-101 -270.5v-446q0 -174 101 -270.5t280 -96.5q172 0 270 86.5t98 241.5v6h170v-6q0 -225 -143.5 -350t-394.5 -125 q-258 0 -404.5 134.5t-146.5 379.5z" />
<glyph unicode="D" horiz-adv-x="1437" d="M102 0v147h195v1139h-195v148h650q259 0 406 -132t147 -374v-420q0 -244 -147.5 -376t-409.5 -132h-646zM467 147h281q183 0 285 95t102 266v420q0 171 -101 264.5t-282 93.5h-285v-1139z" />
<glyph unicode="E" horiz-adv-x="1304" d="M102 0v147h195v1139h-195v148h1121v-410h-170v262h-586v-493h530v-148h-530v-498h586v263h170v-410h-1121z" />
<glyph unicode="F" horiz-adv-x="1304" d="M102 0v147h195v1139h-195v148h1100v-410h-170v262h-565v-520h510v-148h-510v-471h246v-147h-611z" />
<glyph unicode="G" horiz-adv-x="1339" d="M123 494v446q0 241 142 377.5t390 136.5q285 0 404 -154l20 134h133v-441h-170v8q0 145 -97.5 225.5t-268.5 80.5q-181 0 -282 -96.5t-101 -270.5v-446q0 -174 101 -270.5t280 -96.5q172 0 270 86.5t98 241.5v127h-450v147h620v-729h-127l-20 150q-132 -170 -420 -170 q-248 0 -385 133t-137 381z" />
<glyph unicode="H" horiz-adv-x="1662" d="M102 0v147h195v1139h-195v148h560v-148h-195v-493h729v493h-195v148h560v-148h-195v-1139h195v-147h-560v147h195v498h-729v-498h195v-147h-560z" />
<glyph unicode="I" horiz-adv-x="763" d="M102 0v147h195v1139h-195v148h560v-148h-195v-1139h195v-147h-560z" />
<glyph unicode="J" horiz-adv-x="1253" d="M72 418v49h170v-49q0 -138 80 -214.5t221 -76.5q145 0 225 76.5t80 214.5v868h-236v148h600v-148h-194v-868q0 -210 -126 -324t-349 -114q-221 0 -346 114t-125 324z" />
<glyph unicode="K" horiz-adv-x="1603" d="M102 0v147h195v1139h-195v148h560v-148h-195v-596l625 596h-187v148h578v-148h-168l-506 -473l537 -666h176v-147h-580v147h182l-442 558l-215 -203v-355h195v-147h-560z" />
<glyph unicode="L" horiz-adv-x="1284" d="M102 0v147h195v1139h-195v148h611v-148h-246v-1139h586v304h170v-451h-1121z" />
<glyph unicode="M" horiz-adv-x="1826" d="M102 0v147h195v1139h-195v148h359l452 -848l453 848h358v-148h-194v-1139h194v-147h-557v147h195v953l-449 -838l-446 838v-953h195v-147h-560z" />
<glyph unicode="N" horiz-adv-x="1601" d="M102 0v147h195v1139h-195v148h355l739 -1123v975h-195v148h560v-148h-195v-1286h-160l-739 1124v-977h195v-147h-560z" />
<glyph unicode="O" horiz-adv-x="1355" d="M123 494v446q0 247 147.5 380.5t409.5 133.5q259 0 406 -134t147 -380v-446q0 -246 -147.5 -380t-409.5 -134q-259 0 -406 134.5t-147 379.5zM293 494q0 -174 101 -270.5t282 -96.5q183 0 285 96.5t102 270.5v446q0 174 -101 270.5t-282 96.5q-183 0 -285 -96.5 t-102 -270.5v-446z" />
<glyph unicode="P" horiz-adv-x="1355" d="M102 0v147h195v1139h-195v148h734q216 0 337 -110.5t121 -334.5q0 -225 -120.5 -335.5t-337.5 -110.5h-369v-396h246v-147h-611zM467 690h364q137 0 213 73t76 226q0 151 -76.5 224t-212.5 73h-364v-596z" />
<glyph unicode="Q" horiz-adv-x="1335" d="M123 494v446q0 247 147.5 380.5t409.5 133.5q259 0 406 -134t147 -380v-446q0 -191 -91 -316.5t-257 -171.5l305 -297l-121 -119l-389 390h-4q-259 0 -406 134.5t-147 379.5zM293 494q0 -174 101 -270.5t282 -96.5q183 0 285 96.5t102 270.5v446q0 174 -101 270.5 t-282 96.5q-183 0 -285 -96.5t-102 -270.5v-446z" />
<glyph unicode="R" horiz-adv-x="1427" d="M102 0v147h195v1139h-195v148h734q215 0 336.5 -106t121.5 -316q0 -179 -90 -284t-252 -132l260 -449h205v-147h-315l-340 588h-295v-441h215v-147h-580zM467 735h364q136 0 212.5 69.5t76.5 207.5q0 137 -77 205.5t-212 68.5h-364v-551z" />
<glyph unicode="S" horiz-adv-x="1284" d="M123 0v436h170q3 -148 100 -228.5t264 -80.5q156 0 243 64.5t87 187.5q0 55 -17.5 95.5t-45 67t-77.5 47t-97.5 32t-122.5 24.5q-96 17 -167 37.5t-134 54t-102.5 78t-62 108.5t-22.5 146q0 187 121 286t336 99q270 0 397 -151l21 131h133v-435h-170q-3 149 -93 228.5 t-255 79.5q-155 0 -235.5 -61t-80.5 -177q0 -53 16.5 -94t44 -67.5t74 -47t93.5 -33t116 -24.5q99 -17 171.5 -37.5t138 -54t106.5 -78t64.5 -109.5t23.5 -149q0 -192 -126.5 -293.5t-344.5 -101.5q-126 0 -235.5 37.5t-178.5 115.5l-20 -133h-133z" />
<glyph unicode="T" horiz-adv-x="1361" d="M61 1024v410h1239v-410h-170v262h-364v-1139h235v-147h-641v147h236v1139h-365v-262h-170z" />
<glyph unicode="U" horiz-adv-x="1540" d="M41 1286v148h559v-148h-194v-811q0 -165 96 -256.5t266 -91.5q172 0 269.5 91.5t97.5 256.5v811h-195v148h559v-148h-194v-811q0 -237 -142.5 -366t-394.5 -129q-249 0 -390.5 129t-141.5 366v811h-195z" />
<glyph unicode="V" horiz-adv-x="1564" d="M20 1286v148h539v-148h-186l413 -1100l416 1100h-194v148h536v-148h-178l-487 -1286h-199l-487 1286h-173z" />
<glyph unicode="W" horiz-adv-x="2091" d="M20 1286v148h539v-148h-199l285 -1069l318 1217h163l318 -1217l285 1069h-195v148h537v-148h-181l-348 -1286h-192l-308 1126l-307 -1126h-192l-350 1286h-173z" />
<glyph unicode="X" horiz-adv-x="1525" d="M72 0v147h174l418 568l-418 571h-174v148h549v-148h-175l320 -459l324 459h-185v148h549v-148h-174l-420 -565l420 -574h174v-147h-549v147h174l-321 461l-322 -461h185v-147h-549z" />
<glyph unicode="Y" horiz-adv-x="1443" d="M0 1286v148h549v-148h-180l362 -577l365 577h-199v148h547v-148h-168l-469 -737v-402h235v-147h-639v147h236v402l-469 737h-170z" />
<glyph unicode="Z" horiz-adv-x="1181" d="M72 0v147l837 1139h-667v-262h-170v410h1038v-148l-838 -1139h668v263h170v-410h-1038z" />
<glyph unicode="[" horiz-adv-x="608" d="M143 -229v1892h424v-147h-254v-1598h254v-147h-424z" />
<glyph unicode="\" horiz-adv-x="636" d="M-66 1663h142l626 -1892h-139z" />
<glyph unicode="]" horiz-adv-x="608" d="M41 -82h256v1598h-256v147h424v-1892h-424v147z" />
<glyph unicode="^" horiz-adv-x="1042" d="M61 766l377 963h166l377 -963h-168l-295 795l-297 -795h-160z" />
<glyph unicode="_" horiz-adv-x="1044" d="M10 -20h1024v-117h-1024v117z" />
<glyph unicode="`" horiz-adv-x="454" d="M41 1516h166l207 -328h-127z" />
<glyph unicode="a" horiz-adv-x="1169" d="M82 295q0 157 102.5 236t284.5 79q213 0 317 -104v201q0 112 -65.5 169.5t-183.5 57.5q-123 0 -183.5 -48.5t-60.5 -154.5h-160q0 167 104 250.5t300 83.5q191 0 299 -93.5t108 -275.5v-559h184v-137h-307l-18 111q-104 -131 -336 -131q-180 0 -282.5 79t-102.5 236z M242 301q0 -184 266 -184q127 0 202.5 47.5t75.5 136.5q0 87 -76 134.5t-202 47.5q-266 0 -266 -182z" />
<glyph unicode="b" horiz-adv-x="1196" d="M20 1378v138h355v-582q107 131 311 131q183 0 287 -101.5t104 -289.5v-301q0 -188 -104.5 -290.5t-286.5 -102.5q-222 0 -328 143l-20 -123h-123v1378h-195zM375 373q0 -122 74 -189t202 -67q126 0 197.5 64t71.5 181v322q0 117 -71 180.5t-196 63.5q-129 0 -203.5 -67 t-74.5 -187v-301z" />
<glyph unicode="c" horiz-adv-x="1077" d="M119 375v295q0 190 110.5 292.5t305.5 102.5q216 0 303 -121l20 100h123v-352h-160v2q0 113 -70.5 173.5t-197.5 60.5q-131 0 -204 -64.5t-73 -183.5v-315q0 -118 73.5 -183t203.5 -65q126 0 197 60t71 165v12h160v-2q0 -176 -114.5 -274t-313.5 -98q-203 0 -318.5 103 t-115.5 292z" />
<glyph unicode="d" horiz-adv-x="1216" d="M119 373v301q0 188 104 289.5t287 101.5q204 0 311 -125v438h-194v138h354v-1379h195v-137h-318l-22 123q-103 -143 -326 -143q-182 0 -286.5 102.5t-104.5 290.5zM276 362q0 -117 71.5 -181t197.5 -64q128 0 202 67t74 189v301q0 120 -74.5 187t-203.5 67 q-125 0 -196 -63.5t-71 -180.5v-322z" />
<glyph unicode="e" d="M119 375v299q0 190 115.5 290.5t316.5 100.5q198 0 314 -101t116 -290v-197h-705v-112q0 -116 72.5 -182t204.5 -66q125 0 193.5 56.5t74.5 150.5h158q-9 -164 -121 -254t-305 -90q-202 0 -318 103t-116 292zM276 604h545v80q0 119 -72 181.5t-198 62.5 q-128 0 -201.5 -62.5t-73.5 -181.5v-80z" />
<glyph unicode="f" horiz-adv-x="747" d="M41 907v137h225v93q0 67 5 117.5t18 98.5t36 80t59.5 57.5t87.5 35.5q46 10 107 10h12q69 -1 157 -16v-131q-68 9 -118 10h-9q-43 0 -77 -9q-36 -9 -58.5 -26t-36 -48t-18.5 -69.5t-5 -93.5v-109h322v-137h-322v-770h195v-137h-549v137h194v770h-225z" />
<glyph unicode="g" horiz-adv-x="1196" d="M119 -57h157v-13q0 -104 71.5 -163.5t197.5 -59.5q131 0 203.5 64.5t72.5 183.5v195q-108 -130 -311 -130q-182 0 -286.5 103t-104.5 291v260q0 188 104 289.5t287 101.5q108 0 192.5 -36.5t135.5 -106.5l20 122h318v-137h-195v-942q0 -190 -115.5 -292.5t-320.5 -102.5 q-198 0 -312 97.5t-114 273.5v2zM276 403q0 -117 71.5 -181t197.5 -64q128 0 202 67t74 189v260q0 120 -74.5 187t-203.5 67q-125 0 -196 -63.5t-71 -180.5v-281z" />
<glyph unicode="h" horiz-adv-x="1394" d="M102 0v137h195v1241h-195v138h355v-572q106 121 311 121q185 0 288 -96t103 -285v-547h195v-137h-353v694q0 118 -69.5 176t-196.5 58t-202.5 -63t-75.5 -181v-547h194v-137h-549z" />
<glyph unicode="i" horiz-adv-x="733" d="M102 0v137h195v770h-195v137h355v-907h194v-137h-549zM297 1249v232h160v-232h-160z" />
<glyph unicode="j" horiz-adv-x="641" d="M68 -274q49 -10 87 -10q63 0 93 28q49 44 49 176v987h-195v137h355v-1107q0 -57 -4.5 -102.5t-16.5 -88t-31 -72.5t-49 -53.5t-70 -33.5q-36 -9 -85 -9h-10q-55 1 -123 16v132zM297 1249v232h160v-232h-160z" />
<glyph unicode="k" horiz-adv-x="1349" d="M102 0v137h195v1241h-195v138h355v-1035l426 426h-168v137h518v-137h-166l-305 -299l352 -471h184v-137h-282l-377 504l-182 -178v-189h184v-137h-539z" />
<glyph unicode="l" horiz-adv-x="733" d="M102 0v137h195v1241h-195v138h355v-1379h194v-137h-549z" />
<glyph unicode="m" horiz-adv-x="1906" d="M102 0v137h195v770h-195v137h318l18 -108q92 129 283 129q222 0 301 -162q44 79 123 120.5t182 41.5q163 0 253.5 -90t90.5 -270v-568h195v-137h-355v707q0 221 -219 221q-103 0 -166 -59t-63 -173v-559h184v-137h-342v707q0 221 -219 221q-105 0 -167 -59t-62 -173v-559 h184v-137h-539z" />
<glyph unicode="n" horiz-adv-x="1394" d="M102 0v137h195v770h-195v137h318l20 -118q106 139 328 139q185 0 288 -96t103 -285v-547h195v-137h-353v694q0 118 -69.5 176t-196.5 58t-202.5 -63t-75.5 -181v-547h194v-137h-549z" />
<glyph unicode="o" d="M119 373v301q0 190 115.5 290.5t316.5 100.5q198 0 314 -101t116 -290v-301q0 -191 -116 -292t-316 -101t-315 101t-115 292zM276 362q0 -120 73 -182.5t200 -62.5q128 0 200 62.5t72 182.5v322q0 119 -72 181.5t-198 62.5q-128 0 -201.5 -62.5t-73.5 -181.5v-322z" />
<glyph unicode="p" horiz-adv-x="1277" d="M102 -272h195v1179h-195v137h318l20 -122q109 143 328 143q183 0 287 -101.5t104 -289.5v-301q0 -188 -104.5 -290.5t-286.5 -102.5q-208 0 -311 118v-370h194v-138h-549v138zM457 373q0 -122 74 -189t202 -67q126 0 197 64t71 181v322q0 117 -70.5 180.5t-195.5 63.5 q-129 0 -203.5 -67t-74.5 -187v-301z" />
<glyph unicode="q" horiz-adv-x="1196" d="M119 373v301q0 188 104 289.5t287 101.5q108 0 192.5 -36.5t135.5 -106.5l20 122h318v-137h-195v-1179h195v-138h-549v138h194v381q-107 -129 -311 -129q-182 0 -286.5 102.5t-104.5 290.5zM276 362q0 -117 71.5 -181t197.5 -64q128 0 202 67t74 189v301q0 120 -74.5 187 t-203.5 67q-125 0 -196 -63.5t-71 -180.5v-322z" />
<glyph unicode="r" horiz-adv-x="880" d="M102 0v137h195v770h-195v137h318l22 -131q68 91 183 129q66 21 133 21q50 0 102 -12v-144q-62 11 -115 11q-104 0 -177 -42q-111 -64 -111 -192v-547h194v-137h-549z" />
<glyph unicode="s" horiz-adv-x="1067" d="M109 0v319h157q0 -102 71.5 -154t203.5 -52q127 0 193.5 42.5t66.5 125.5q0 72 -66 112.5t-215 69.5q-75 14 -128 28.5t-106 39.5t-85 57.5t-52 81.5t-20 112q0 124 93 203.5t276 79.5q211 0 303 -113l16 92h123v-319h-160v10q-6 199 -248 199q-245 0 -245 -160 q0 -75 66 -115t218 -69q76 -15 130 -30t106 -40.5t84 -57.5t51 -80t19 -110q0 -136 -105.5 -214t-282.5 -78q-231 0 -325 114l-17 -94h-122z" />
<glyph unicode="t" horiz-adv-x="808" d="M41 907v137h205v349l160 47v-396h321v-137h-321v-538q0 -56 5 -94t18.5 -69t36 -48.5t58.5 -27.5q34 -9 81 -8h5q50 0 117 9v-131q-88 -15 -157 -16h-12q-62 0 -108 10q-50 10 -86 35.5t-59 57.5t-36 80t-18 98.5t-5 117.5v524h-205z" />
<glyph unicode="u" horiz-adv-x="1343" d="M41 907v137h354v-692q0 -119 70 -177t197 -58q128 0 203 62.5t75 182.5v545h-195v137h353v-907h194v-137h-317l-21 121q-105 -141 -327 -141q-184 0 -287.5 96t-103.5 286v545h-195z" />
<glyph unicode="v" horiz-adv-x="1335" d="M31 907v137h508v-137h-181l316 -764l313 764h-180v137h498v-137h-160l-377 -907h-201l-374 907h-162z" />
<glyph unicode="w" horiz-adv-x="1849" d="M31 907v137h501v-137h-190l244 -727l266 864h158l264 -864l244 727h-191v137h492v-137h-152l-307 -907h-178l-256 805l-256 -805h-178l-310 907h-151z" />
<glyph unicode="x" horiz-adv-x="1275" d="M61 0v137h142l340 381l-340 389h-142v137h488v-137h-152l250 -305l252 305h-151v137h466v-137h-141l-342 -379l342 -391h141v-137h-487v137h152l-252 305l-250 -305h151v-137h-467z" />
<glyph unicode="y" horiz-adv-x="1335" d="M31 907v137h508v-137h-181l316 -764l313 764h-180v137h498v-137h-160l-494 -1179h172v-138h-516v138h199l115 272h-54l-374 907h-162z" />
<glyph unicode="z" horiz-adv-x="1015" d="M82 0v137l655 770h-495v-202h-160v339h852v-137l-655 -770h497v203h158v-340h-852z" />
<glyph unicode="{" horiz-adv-x="690" d="M0 643v148h66q73 0 116 45.5t43 119.5v402q0 138 83.5 221.5t219.5 83.5h121v-147h-90q-75 0 -120.5 -44.5t-45.5 -119.5v-357q0 -100 -46.5 -172.5t-127.5 -105.5q80 -31 127 -104.5t47 -172.5v-356q0 -76 45.5 -121t120.5 -45h90v-147h-121q-135 0 -219 84.5t-84 220.5 v403q0 74 -43 119t-116 45h-66z" />
<glyph unicode="|" horiz-adv-x="430" d="M143 -276v1986h144v-1986h-144z" />
<glyph unicode="}" horiz-adv-x="690" d="M41 -82h90q75 0 120.5 45t45.5 121v356q0 99 47 172.5t127 104.5q-81 33 -127.5 105.5t-46.5 172.5v357q0 75 -45.5 119.5t-120.5 44.5h-90v147h121q135 0 219 -84.5t84 -220.5v-402q0 -75 43.5 -120t116.5 -45h65v-148h-65q-73 0 -116.5 -45t-43.5 -119v-403 q0 -138 -83.5 -221.5t-219.5 -83.5h-121v147z" />
<glyph unicode="~" horiz-adv-x="1048" d="M86 670q60 107 118.5 148.5t123.5 41.5q49 0 107 -25t102 -55t94.5 -55t87.5 -25q78 0 158 125l88 -55q-60 -107 -118.5 -148.5t-123.5 -41.5q-49 0 -109 25t-105.5 54.5t-97.5 54.5t-89 25q-68 0 -148 -125z" />
<glyph unicode="&#xa1;" horiz-adv-x="528" d="M184 -389v1034h160v-1034h-160zM184 815v229h160v-229h-160z" />
<glyph unicode="&#xa2;" horiz-adv-x="1118" d="M102 743v316q0 173 102 274.5t281 116.5v229h158v-231q155 -22 229 -121l21 107h123v-353h-158v13q-4 107 -81.5 165t-211.5 58q-146 0 -224.5 -64t-78.5 -184v-336q0 -118 79 -183t222 -65q139 0 217 60.5t78 165.5v12h158v-2q0 -159 -97.5 -255.5t-275.5 -113.5v-229 h-158v227q-184 19 -283.5 120t-99.5 273z" />
<glyph unicode="&#xa3;" horiz-adv-x="1286" d="M61 0v147h222v500h-222v127h222v285q0 190 113 292.5t311 102.5q214 0 311 -129l20 109h133v-430h-170v67q0 113 -72 174.5t-198 61.5q-131 0 -204.5 -64.5t-73.5 -183.5v-285h430v-127h-430v-500h731v-147h-1123z" />
<glyph unicode="&#xa4;" horiz-adv-x="1304" d="M20 188l203 203q-102 136 -102 328q0 191 104 330l-196 198l96 96l197 -198q134 106 329 106q194 0 328 -106l207 207l98 -97l-207 -206q107 -138 107 -330q0 -195 -107 -330l199 -196l-96 -97l-199 197q-140 -105 -330 -105q-198 0 -329 107l-203 -203zM279 719 q0 -173 104 -283t268 -110t268.5 110t104.5 283q0 175 -104.5 285t-268.5 110t-268 -110t-104 -285z" />
<glyph unicode="&#xa5;" horiz-adv-x="1443" d="M0 1286v148h549v-148h-180l362 -577l365 577h-199v148h547v-148h-168l-389 -612h307v-127h-387v-400h235v-147h-639v147h236v400h-387v127h307l-389 612h-170z" />
<glyph unicode="&#xa6;" horiz-adv-x="430" d="M143 -276v749h144v-749h-144zM143 961v749h144v-749h-144z" />
<glyph unicode="&#xa7;" horiz-adv-x="1271" d="M123 526q0 175 125 285q-125 86 -125 260q0 183 133 283t377 100q246 0 377 -109t131 -323v-18h-170v18q0 141 -86 213t-252 72q-165 0 -250.5 -59.5t-85.5 -166.5q0 -93 54.5 -135t168.5 -63l273 -52q179 -34 267.5 -111.5t88.5 -221.5q0 -172 -125 -285 q125 -86 125 -260q0 -183 -132.5 -283t-375.5 -100q-246 0 -377 109t-131 323v18h168v-18q0 -140 87 -212.5t253 -72.5q163 0 248.5 59.5t85.5 166.5q0 49 -15 83.5t-46 56.5t-68.5 35.5t-93.5 24.5l-271 52q-180 34 -269 110.5t-89 220.5zM297 553q0 -91 56.5 -137 t168.5 -68l273 -51q23 -4 96 -23q84 81 84 197q0 91 -56.5 137t-168.5 68l-271 51q-57 10 -98 23q-84 -81 -84 -197z" />
<glyph unicode="&#xa8;" horiz-adv-x="661" d="M41 1239v221h139v-221h-139zM461 1239v221h139v-221h-139z" />
<glyph unicode="&#xa9;" horiz-adv-x="1802" d="M164 717q0 221 91 388t258 258t388 91t388 -91t258 -258t91 -388t-91 -388t-258 -258t-388 -91t-388 91t-258 258t-91 388zM276 717q0 -288 171 -461.5t454 -173.5q284 0 454.5 173t170.5 462q0 290 -170.5 463.5t-454.5 173.5q-283 0 -454 -173.5t-171 -463.5zM557 590 v256q0 148 92 227.5t256 79.5q158 0 249 -76t91 -213v-16h-112v16q0 92 -60 141.5t-168 49.5q-114 0 -174.5 -53.5t-60.5 -155.5v-256q0 -102 60 -155.5t173 -53.5q109 0 169.5 49t60.5 141v27h112v-27q0 -137 -91.5 -213.5t-250.5 -76.5q-163 0 -254.5 80.5t-91.5 228.5z " />
<glyph unicode="&#xaa;" horiz-adv-x="751" d="M63 973q0 99 62.5 150t171.5 51q129 0 192 -72v125q0 125 -135 125q-67 0 -100 -26.5t-33 -84.5h-127q0 105 66.5 159t193.5 54q123 0 192.5 -59.5t69.5 -175.5v-324h107v-111h-205l-20 72q-60 -84 -203 -84q-107 0 -169.5 51t-62.5 150zM190 977q0 -103 146 -103 q65 0 107 25t46 68v18q-4 44 -46 69t-107 25q-146 0 -146 -102z" />
<glyph unicode="&#xab;" horiz-adv-x="892" d="M41 463v139l424 328v-162l-287 -236l287 -231v-166zM408 463v139l423 328v-162l-288 -236l288 -231v-166z" />
<glyph unicode="&#xac;" horiz-adv-x="1048" d="M61 649v137h926v-538h-143v401h-783z" />
<glyph unicode="&#xad;" horiz-adv-x="530" d="M61 455v137h408v-137h-408z" />
<glyph unicode="&#xae;" horiz-adv-x="749" d="M61 1120q0 142 85.5 228t228.5 86q142 0 227.5 -85.5t85.5 -228.5q0 -142 -85 -227.5t-228 -85.5t-228.5 85.5t-85.5 227.5zM115 1120q0 -121 70.5 -192.5t189.5 -71.5t189.5 71.5t70.5 192.5t-70.5 193.5t-189.5 72.5t-189.5 -72.5t-70.5 -193.5zM244 940v360h153 q117 0 117 -112q0 -92 -72 -111l70 -137h-68l-65 131h-76v-131h-59zM303 1124h92q60 0 60 62q0 61 -60 61h-92v-123z" />
<glyph unicode="&#xaf;" horiz-adv-x="638" d="M41 1268v116h557v-116h-557z" />
<glyph unicode="&#xb0;" horiz-adv-x="661" d="M51 1176q0 123 78.5 200.5t202.5 77.5q123 0 200.5 -77.5t77.5 -200.5q0 -124 -77.5 -202.5t-200.5 -78.5q-124 0 -202.5 78.5t-78.5 202.5zM158 1176q0 -78 48.5 -126.5t125.5 -48.5t124.5 48.5t47.5 126.5q0 77 -48 125.5t-124 48.5t-125 -49t-49 -125z" />
<glyph unicode="&#xb1;" horiz-adv-x="1048" d="M61 0v137h926v-137h-926zM61 711v137h390v405h145v-405h391v-137h-391v-402h-145v402h-390z" />
<glyph unicode="&#xb2;" horiz-adv-x="772" d="M123 680v111l323 305q66 60 66 127q0 53 -35 82.5t-96 29.5q-59 0 -95 -33.5t-36 -97.5v-26h-127v256h98l17 -62q66 72 178 72q103 0 162 -54.5t59 -156.5q0 -127 -133 -229l-217 -213h358v-111h-522z" />
<glyph unicode="&#xb3;" horiz-adv-x="796" d="M133 879v36h123v-22q0 -53 35.5 -83t99.5 -30t98.5 31t34.5 84q0 55 -35 86t-100 31h-41v92h41q64 0 97.5 32t33.5 85t-34.5 83.5t-96.5 30.5q-59 0 -94.5 -30.5t-38.5 -79.5v-25h-123v236h98l15 -62q63 72 180 72q101 0 162 -55.5t61 -153.5q0 -133 -125 -178 q129 -46 129 -180q0 -96 -67 -152.5t-191 -56.5t-193 57t-69 152z" />
<glyph unicode="&#xb4;" horiz-adv-x="454" d="M41 1188l207 328h168l-246 -328h-129z" />
<glyph unicode="&#xb6;" horiz-adv-x="1077" d="M61 1102q0 167 91.5 249.5t253.5 82.5h528v-1434h-150v1286h-127v-1286h-149v766h-102q-163 0 -254 83.5t-91 252.5z" />
<glyph unicode="&#xb7;" horiz-adv-x="466" d="M143 592v252h181v-252h-181z" />
<glyph unicode="&#xb8;" horiz-adv-x="440" d="M41 -184l25 92q153 21 243 -19t90 -139q0 -100 -90 -140t-243 -18l-25 95q106 -14 163.5 -0.5t57.5 65.5q0 51 -57.5 64.5t-163.5 -0.5z" />
<glyph unicode="&#xb9;" horiz-adv-x="598" d="M102 680v111h160v516l-160 -115v127l160 115h125v-643h150v-111h-435z" />
<glyph unicode="&#xba;" horiz-adv-x="737" d="M92 1024v178q0 123 74.5 187.5t202.5 64.5q129 0 202.5 -64.5t73.5 -187.5v-178q0 -123 -73.5 -187.5t-202.5 -64.5q-128 0 -202.5 64.5t-74.5 187.5zM219 1018q0 -65 40.5 -100t109.5 -35t109 35t40 100v190q0 66 -40 100.5t-109 34.5t-109.5 -34.5t-40.5 -100.5v-190z " />
<glyph unicode="&#xbb;" horiz-adv-x="892" d="M61 135v164l289 233l-289 234v164l424 -328v-139zM428 135v164l287 233l-287 234v164l424 -328v-139z" />
<glyph unicode="&#xbc;" horiz-adv-x="1585" d="M139 680v108h158v517l-158 -113v127l158 115h127v-646h147v-108h-432zM221 0l987 1434h142l-988 -1434h-141zM932 209v108l221 437h133l-229 -437h172v129l125 21v-150h137v-108h-137v-109h94v-100h-315v100h96v109h-297z" />
<glyph unicode="&#xbd;" horiz-adv-x="1632" d="M139 680v108h158v517l-158 -113v127l158 115h127v-646h147v-108h-432zM221 0l987 1434h142l-988 -1434h-141zM989 0v111l324 305q65 59 65 127q0 53 -35.5 82.5t-95.5 29.5q-61 0 -97 -33.5t-36 -97.5v-26h-125v256h98l15 -62q64 72 178 72q105 0 164 -54t59 -157 q0 -125 -133 -229l-217 -213h356v-111h-520z" />
<glyph unicode="&#xbe;" horiz-adv-x="1660" d="M133 879v36h123v-22q0 -53 35.5 -83t99.5 -30t98.5 31t34.5 84q0 55 -35 86t-100 31h-41v92h41q64 0 97.5 32t33.5 85t-34.5 83.5t-96.5 30.5q-59 0 -94.5 -30.5t-38.5 -79.5v-25h-123v236h98l15 -62q63 72 180 72q101 0 162 -55.5t61 -153.5q0 -133 -125 -178 q129 -46 129 -180q0 -96 -67 -152.5t-191 -56.5t-193 57t-69 152zM297 0l987 1434h141l-987 -1434h-141zM1008 209v108l221 437h133l-229 -437h172v129l125 21v-150h137v-108h-137v-109h94v-100h-316v100h97v109h-297z" />
<glyph unicode="&#xbf;" horiz-adv-x="1284" d="M143 14q0 169 112 274t308 122v256h160v-387h-80q-159 0 -249.5 -71t-90.5 -194q0 -125 90 -195.5t250 -70.5q158 0 248 70.5t90 195.5v47h160v-47q0 -187 -133.5 -295t-364.5 -108q-232 0 -366 108t-134 295zM563 836v229h160v-229h-160z" />
<glyph unicode="&#xc0;" horiz-adv-x="1574" d="M20 0v147h179l489 1287h207l489 -1287h170v-147h-536v147h186l-114 293h-613l-112 -293h194v-147h-539zM526 588h516l-258 676zM549 1812h176l186 -296h-137z" />
<glyph unicode="&#xc1;" horiz-adv-x="1574" d="M20 0v147h179l489 1287h207l489 -1287h170v-147h-536v147h186l-114 293h-613l-112 -293h194v-147h-539zM526 588h516l-258 676zM672 1516l188 296h176l-225 -296h-139z" />
<glyph unicode="&#xc2;" horiz-adv-x="1574" d="M20 0v147h179l489 1287h207l489 -1287h170v-147h-536v147h186l-114 293h-613l-112 -293h194v-147h-539zM473 1516l232 296h176l231 -296h-149l-172 202l-173 -202h-145zM526 588h516l-258 676z" />
<glyph unicode="&#xc3;" horiz-adv-x="1574" d="M20 0v147h179l489 1287h207l489 -1287h170v-147h-536v147h186l-114 293h-613l-112 -293h194v-147h-539zM416 1604q58 112 112 157t113 45q41 0 89 -24t83 -52.5t73.5 -52.5t63.5 -24q51 0 129 137l88 -53q-101 -203 -221 -203q-42 0 -90.5 24t-83.5 52t-73 52t-62 24 q-30 0 -60 -31t-71 -105zM526 588h516l-258 676z" />
<glyph unicode="&#xc4;" horiz-adv-x="1574" d="M20 0v147h179l489 1287h207l489 -1287h170v-147h-536v147h186l-114 293h-613l-112 -293h194v-147h-539zM481 1552v220h140v-220h-140zM526 588h516l-258 676zM963 1552v220h139v-220h-139z" />
<glyph unicode="&#xc5;" horiz-adv-x="1574" d="M20 0v147h179l489 1287h207l489 -1287h170v-147h-536v147h186l-114 293h-613l-112 -293h194v-147h-539zM526 588h516l-258 676zM584 1667q0 88 57.5 142.5t149.5 54.5t150 -54.5t58 -142.5t-58 -142.5t-150 -54.5t-149.5 54.5t-57.5 142.5zM686 1667q0 -53 28 -83t77 -30 t76.5 30t27.5 83t-27.5 83t-76.5 30t-77 -30t-28 -83z" />
<glyph unicode="&#xc6;" horiz-adv-x="2177" d="M0 0v147h176l817 1139h-184v148h1286v-410h-168v262h-588v-493h531v-148h-531v-498h588v263h168v-410h-1118v147h194v293h-587l-219 -293h174v-147h-539zM662 588h509v710z" />
<glyph unicode="&#xc7;" horiz-adv-x="1325" d="M123 494v446q0 241 142 377.5t390 136.5q281 0 404 -160l20 140h133v-461h-170v8q0 153 -97.5 239.5t-268.5 86.5q-181 0 -282 -96.5t-101 -270.5v-446q0 -174 101 -270.5t280 -96.5q172 0 270 86.5t98 241.5v6h170v-6q0 -225 -143.5 -350t-394.5 -125 q-258 0 -404.5 134.5t-146.5 379.5zM504 -184l24 92q154 21 244 -19t90 -139q0 -100 -90.5 -140t-243.5 -18l-24 95q106 -14 163.5 -0.5t57.5 65.5q0 51 -57.5 64.5t-163.5 -0.5z" />
<glyph unicode="&#xc8;" horiz-adv-x="1304" d="M102 0v147h195v1139h-195v148h1121v-410h-170v262h-586v-493h530v-148h-530v-498h586v263h170v-410h-1121zM440 1812h176l187 -296h-137z" />
<glyph unicode="&#xc9;" horiz-adv-x="1304" d="M102 0v147h195v1139h-195v148h1121v-410h-170v262h-586v-493h530v-148h-530v-498h586v263h170v-410h-1121zM561 1516l189 296h176l-226 -296h-139z" />
<glyph unicode="&#xca;" horiz-adv-x="1304" d="M102 0v147h195v1139h-195v148h1121v-410h-170v262h-586v-493h530v-148h-530v-498h586v263h170v-410h-1121zM362 1516l232 296h176l231 -296h-149l-172 202l-172 -202h-146z" />
<glyph unicode="&#xcb;" horiz-adv-x="1304" d="M102 0v147h195v1139h-195v148h1121v-410h-170v262h-586v-493h530v-148h-530v-498h586v263h170v-410h-1121zM373 1552v220h139v-220h-139zM854 1552v220h139v-220h-139z" />
<glyph unicode="&#xcc;" horiz-adv-x="763" d="M98 1812h176l187 -296h-137zM102 0v147h195v1139h-195v148h560v-148h-195v-1139h195v-147h-560z" />
<glyph unicode="&#xcd;" horiz-adv-x="763" d="M102 0v147h195v1139h-195v148h560v-148h-195v-1139h195v-147h-560zM301 1516l188 296h177l-226 -296h-139z" />
<glyph unicode="&#xce;" horiz-adv-x="763" d="M61 1516l232 296h176l231 -296h-149l-172 202l-172 -202h-146zM102 0v147h195v1139h-195v148h560v-148h-195v-1139h195v-147h-560z" />
<glyph unicode="&#xcf;" horiz-adv-x="763" d="M102 0v147h195v1139h-195v148h560v-148h-195v-1139h195v-147h-560zM123 1552v220h139v-220h-139zM502 1552v220h139v-220h-139z" />
<glyph unicode="&#xd0;" horiz-adv-x="1437" d="M102 0v147h195v512h-143v117h143v510h-195v148h650q259 0 406 -132t147 -374v-420q0 -244 -147.5 -376t-409.5 -132h-646zM467 147h281q183 0 285 95t102 266v420q0 171 -101 264.5t-282 93.5h-285v-510h305v-117h-305v-512z" />
<glyph unicode="&#xd1;" horiz-adv-x="1601" d="M102 0v147h195v1139h-195v148h355l739 -1123v975h-195v148h560v-148h-195v-1286h-160l-739 1124v-977h195v-147h-560zM455 1604q58 112 112 157t113 45q41 0 89 -24t83 -52.5t73.5 -52.5t63.5 -24q51 0 129 137l88 -53q-56 -112 -110.5 -157.5t-110.5 -45.5 q-42 0 -90.5 24t-83.5 52t-73 52t-62 24q-30 0 -60 -31t-71 -105z" />
<glyph unicode="&#xd2;" horiz-adv-x="1355" d="M123 494v446q0 247 147.5 380.5t409.5 133.5q259 0 406 -134t147 -380v-446q0 -246 -147.5 -380t-409.5 -134q-259 0 -406 134.5t-147 379.5zM293 494q0 -174 101 -270.5t282 -96.5q183 0 285 96.5t102 270.5v446q0 174 -101 270.5t-282 96.5q-183 0 -285 -96.5 t-102 -270.5v-446zM424 1812h176l186 -296h-137z" />
<glyph unicode="&#xd3;" horiz-adv-x="1355" d="M123 494v446q0 247 147.5 380.5t409.5 133.5q259 0 406 -134t147 -380v-446q0 -246 -147.5 -380t-409.5 -134q-259 0 -406 134.5t-147 379.5zM293 494q0 -174 101 -270.5t282 -96.5q183 0 285 96.5t102 270.5v446q0 174 -101 270.5t-282 96.5q-183 0 -285 -96.5 t-102 -270.5v-446zM547 1516l188 296h176l-225 -296h-139z" />
<glyph unicode="&#xd4;" horiz-adv-x="1355" d="M123 494v446q0 247 147.5 380.5t409.5 133.5q259 0 406 -134t147 -380v-446q0 -246 -147.5 -380t-409.5 -134q-259 0 -406 134.5t-147 379.5zM293 494q0 -174 101 -270.5t282 -96.5q183 0 285 96.5t102 270.5v446q0 174 -101 270.5t-282 96.5q-183 0 -285 -96.5 t-102 -270.5v-446zM348 1516l232 296h176l231 -296h-149l-172 202l-172 -202h-146z" />
<glyph unicode="&#xd5;" horiz-adv-x="1355" d="M123 494v446q0 247 147.5 380.5t409.5 133.5q259 0 406 -134t147 -380v-446q0 -246 -147.5 -380t-409.5 -134q-259 0 -406 134.5t-147 379.5zM293 494q0 -174 101 -270.5t282 -96.5q183 0 285 96.5t102 270.5v446q0 174 -101 270.5t-282 96.5q-183 0 -285 -96.5 t-102 -270.5v-446zM301 1604q58 112 112 157t113 45q41 0 89 -24t83.5 -52.5t74 -52.5t63.5 -24q51 0 129 137l88 -53q-101 -203 -222 -203q-42 0 -90.5 24t-83.5 52t-73 52t-62 24q-30 0 -60 -31t-71 -105z" />
<glyph unicode="&#xd6;" horiz-adv-x="1355" d="M123 494v446q0 247 147.5 380.5t409.5 133.5q259 0 406 -134t147 -380v-446q0 -246 -147.5 -380t-409.5 -134q-259 0 -406 134.5t-147 379.5zM293 494q0 -174 101 -270.5t282 -96.5q183 0 285 96.5t102 270.5v446q0 174 -101 270.5t-282 96.5q-183 0 -285 -96.5 t-102 -270.5v-446zM356 1552v220h140v-220h-140zM838 1552v220h139v-220h-139z" />
<glyph unicode="&#xd7;" horiz-adv-x="1048" d="M96 393l328 328l-320 321l97 97l321 -322l330 330l98 -96l-332 -332l324 -322l-96 -96l-324 322l-327 -326z" />
<glyph unicode="&#xd8;" horiz-adv-x="1355" d="M121 -121l139 242q-137 137 -137 373v446q0 247 147.5 380.5t409.5 133.5q181 0 311 -68l133 232l109 -64l-139 -241q139 -139 139 -373v-446q0 -246 -147.5 -380t-409.5 -134q-186 0 -314 67l-133 -231zM293 494q0 -130 57 -218l561 973q-96 58 -231 58 q-183 0 -285 -96.5t-102 -270.5v-446zM442 184q89 -57 234 -57q183 0 285 96.5t102 270.5v446q0 133 -59 219z" />
<glyph unicode="&#xd9;" horiz-adv-x="1540" d="M41 1286v148h559v-148h-194v-811q0 -165 96 -256.5t266 -91.5q172 0 269.5 91.5t97.5 256.5v811h-195v148h559v-148h-194v-811q0 -237 -142.5 -366t-394.5 -129q-249 0 -390.5 129t-141.5 366v811h-195zM526 1812h176l187 -296h-137z" />
<glyph unicode="&#xda;" horiz-adv-x="1540" d="M41 1286v148h559v-148h-194v-811q0 -165 96 -256.5t266 -91.5q172 0 269.5 91.5t97.5 256.5v811h-195v148h559v-148h-194v-811q0 -237 -142.5 -366t-394.5 -129q-249 0 -390.5 129t-141.5 366v811h-195zM649 1516l189 296h176l-226 -296h-139z" />
<glyph unicode="&#xdb;" horiz-adv-x="1540" d="M41 1286v148h559v-148h-194v-811q0 -165 96 -256.5t266 -91.5q172 0 269.5 91.5t97.5 256.5v811h-195v148h559v-148h-194v-811q0 -237 -142.5 -366t-394.5 -129q-249 0 -390.5 129t-141.5 366v811h-195zM451 1516l231 296h176l232 -296h-150l-172 202l-172 -202h-145z " />
<glyph unicode="&#xdc;" horiz-adv-x="1540" d="M41 1286v148h559v-148h-194v-811q0 -165 96 -256.5t266 -91.5q172 0 269.5 91.5t97.5 256.5v811h-195v148h559v-148h-194v-811q0 -237 -142.5 -366t-394.5 -129q-249 0 -390.5 129t-141.5 366v811h-195zM459 1552v220h139v-220h-139zM940 1552v220h139v-220h-139z" />
<glyph unicode="&#xdd;" horiz-adv-x="1443" d="M0 1286v148h549v-148h-180l362 -577l365 577h-199v148h547v-148h-168l-469 -737v-402h235v-147h-639v147h236v402l-469 737h-170zM602 1516l189 296h176l-226 -296h-139z" />
<glyph unicode="&#xde;" horiz-adv-x="1355" d="M102 0v147h195v1139h-195v148h365v-271h369q217 0 337.5 -110.5t120.5 -335.5q0 -224 -121 -335.5t-337 -111.5h-369v-270h-365zM467 418h364q137 0 213 73.5t76 225.5q0 153 -76.5 226t-212.5 73h-364v-598z" />
<glyph unicode="&#xdf;" horiz-adv-x="1394" d="M41 0v137h195v989q0 187 137 298.5t362 111.5q223 0 357.5 -103.5t134.5 -275.5q0 -114 -56 -199t-157 -131q138 -50 213.5 -159t75.5 -267q0 -200 -109.5 -310.5t-298.5 -110.5q-175 0 -267.5 96.5t-92.5 259.5v16h147v-6q0 -105 59.5 -167t151.5 -62q120 0 186 78.5 t66 216.5q0 158 -102.5 247t-276.5 91h-39v137h21q145 5 232 73t87 183q0 117 -89.5 186.5t-242.5 69.5t-246.5 -78t-93.5 -209v-1112h-354z" />
<glyph unicode="&#xe0;" horiz-adv-x="1169" d="M82 295q0 157 102.5 236t284.5 79q213 0 317 -104v201q0 112 -65.5 169.5t-183.5 57.5q-123 0 -183.5 -48.5t-60.5 -154.5h-160q0 167 104 250.5t300 83.5q191 0 299 -93.5t108 -275.5v-559h184v-137h-307l-18 111q-104 -131 -336 -131q-180 0 -282.5 79t-102.5 236z M242 301q0 -184 266 -184q127 0 202.5 47.5t75.5 136.5q0 87 -76 134.5t-202 47.5q-266 0 -266 -182zM270 1516h166l207 -328h-127z" />
<glyph unicode="&#xe1;" horiz-adv-x="1169" d="M82 295q0 157 102.5 236t284.5 79q213 0 317 -104v201q0 112 -65.5 169.5t-183.5 57.5q-123 0 -183.5 -48.5t-60.5 -154.5h-160q0 167 104 250.5t300 83.5q191 0 299 -93.5t108 -275.5v-559h184v-137h-307l-18 111q-104 -131 -336 -131q-180 0 -282.5 79t-102.5 236z M242 301q0 -184 266 -184q127 0 202.5 47.5t75.5 136.5q0 87 -76 134.5t-202 47.5q-266 0 -266 -182zM434 1188l207 328h168l-246 -328h-129z" />
<glyph unicode="&#xe2;" horiz-adv-x="1169" d="M82 295q0 157 102.5 236t284.5 79q213 0 317 -104v201q0 112 -65.5 169.5t-183.5 57.5q-123 0 -183.5 -48.5t-60.5 -154.5h-160q0 167 104 250.5t300 83.5q191 0 299 -93.5t108 -275.5v-559h184v-137h-307l-18 111q-104 -131 -336 -131q-180 0 -282.5 79t-102.5 236z M240 1188l221 328h155l222 -328h-148l-153 217l-154 -217h-143zM242 301q0 -184 266 -184q127 0 202.5 47.5t75.5 136.5q0 87 -76 134.5t-202 47.5q-266 0 -266 -182z" />
<glyph unicode="&#xe3;" horiz-adv-x="1169" d="M82 295q0 157 102.5 236t284.5 79q213 0 317 -104v201q0 112 -65.5 169.5t-183.5 57.5q-123 0 -183.5 -48.5t-60.5 -154.5h-160q0 167 104 250.5t300 83.5q191 0 299 -93.5t108 -275.5v-559h184v-137h-307l-18 111q-104 -131 -336 -131q-180 0 -282.5 79t-102.5 236z M190 1307q59 113 110.5 157.5t109.5 44.5q42 0 84.5 -24t70.5 -52.5t59 -52.5t54 -24q26 0 54 31t71 106l88 -53q-57 -114 -109 -158.5t-110 -44.5q-34 0 -67.5 15.5t-60 38t-50.5 45t-47.5 38t-43.5 15.5q-25 0 -53 -31t-69 -105zM242 301q0 -184 266 -184 q127 0 202.5 47.5t75.5 136.5q0 87 -76 134.5t-202 47.5q-266 0 -266 -182z" />
<glyph unicode="&#xe4;" horiz-adv-x="1169" d="M82 295q0 157 102.5 236t284.5 79q213 0 317 -104v201q0 112 -65.5 169.5t-183.5 57.5q-123 0 -183.5 -48.5t-60.5 -154.5h-160q0 167 104 250.5t300 83.5q191 0 299 -93.5t108 -275.5v-559h184v-137h-307l-18 111q-104 -131 -336 -131q-180 0 -282.5 79t-102.5 236z M242 301q0 -184 266 -184q127 0 202.5 47.5t75.5 136.5q0 87 -76 134.5t-202 47.5q-266 0 -266 -182zM258 1239v221h139v-221h-139zM678 1239v221h139v-221h-139z" />
<glyph unicode="&#xe5;" horiz-adv-x="1169" d="M82 295q0 157 102.5 236t284.5 79q213 0 317 -104v201q0 112 -65.5 169.5t-183.5 57.5q-123 0 -183.5 -48.5t-60.5 -154.5h-160q0 167 104 250.5t300 83.5q191 0 299 -93.5t108 -275.5v-559h184v-137h-307l-18 111q-104 -131 -336 -131q-180 0 -282.5 79t-102.5 236z M242 301q0 -184 266 -184q127 0 202.5 47.5t75.5 136.5q0 87 -76 134.5t-202 47.5q-266 0 -266 -182zM330 1339q0 88 57.5 142.5t149.5 54.5t150 -54.5t58 -142.5t-58 -142t-150 -54t-149.5 54t-57.5 142zM432 1339q0 -53 28 -82.5t77 -29.5t76.5 29.5t27.5 82.5t-27.5 83 t-76.5 30t-77 -30t-28 -83z" />
<glyph unicode="&#xe6;" horiz-adv-x="1765" d="M82 295q0 157 102 236t285 79q211 0 317 -100v197q0 112 -65.5 169.5t-183.5 57.5q-123 0 -183.5 -48.5t-60.5 -154.5h-160q0 167 104 250.5t300 83.5q251 0 335 -170q102 170 361 170q192 0 304 -101t112 -290v-197h-705v-112q0 -118 73.5 -183t203.5 -65 q125 0 193.5 56.5t74.5 150.5h158q-9 -163 -118.5 -253.5t-291.5 -90.5q-129 0 -223.5 45t-145.5 131q-99 -176 -391 -176q-186 0 -290.5 79t-104.5 236zM242 301q0 -184 266 -184q127 0 202.5 47.5t75.5 136.5q0 87 -76 134.5t-202 47.5q-266 0 -266 -182zM944 604h545v80 q0 119 -72 181.5t-198 62.5q-128 0 -201.5 -62.5t-73.5 -181.5v-80z" />
<glyph unicode="&#xe7;" horiz-adv-x="1077" d="M119 375v295q0 190 110.5 292.5t305.5 102.5q216 0 303 -121l20 100h123v-352h-160v2q0 113 -70.5 173.5t-197.5 60.5q-131 0 -204 -64.5t-73 -183.5v-315q0 -118 73.5 -183t203.5 -65q126 0 197 60t71 165v12h160v-2q0 -176 -114.5 -274t-313.5 -98q-203 0 -318.5 103 t-115.5 292zM395 -184l25 92q154 21 244 -19t90 -139q0 -100 -90.5 -140t-243.5 -18l-25 95q106 -14 163.5 -0.5t57.5 65.5q0 51 -57.5 64.5t-163.5 -0.5z" />
<glyph unicode="&#xe8;" d="M119 375v299q0 190 115.5 290.5t316.5 100.5q198 0 314 -101t116 -290v-197h-705v-112q0 -116 72.5 -182t204.5 -66q125 0 193.5 56.5t74.5 150.5h158q-9 -164 -121 -254t-305 -90q-202 0 -318 103t-116 292zM276 604h545v80q0 119 -72 181.5t-198 62.5 q-128 0 -201.5 -62.5t-73.5 -181.5v-80zM281 1516h165l207 -328h-127z" />
<glyph unicode="&#xe9;" d="M119 375v299q0 190 115.5 290.5t316.5 100.5q198 0 314 -101t116 -290v-197h-705v-112q0 -116 72.5 -182t204.5 -66q125 0 193.5 56.5t74.5 150.5h158q-9 -164 -121 -254t-305 -90q-202 0 -318 103t-116 292zM276 604h545v80q0 119 -72 181.5t-198 62.5 q-128 0 -201.5 -62.5t-73.5 -181.5v-80zM444 1188l207 328h168l-246 -328h-129z" />
<glyph unicode="&#xea;" d="M119 375v299q0 190 115.5 290.5t316.5 100.5q198 0 314 -101t116 -290v-197h-705v-112q0 -116 72.5 -182t204.5 -66q125 0 193.5 56.5t74.5 150.5h158q-9 -164 -121 -254t-305 -90q-202 0 -318 103t-116 292zM250 1188l221 328h156l221 -328h-148l-153 217l-154 -217 h-143zM276 604h545v80q0 119 -72 181.5t-198 62.5q-128 0 -201.5 -62.5t-73.5 -181.5v-80z" />
<glyph unicode="&#xeb;" d="M119 375v299q0 190 115.5 290.5t316.5 100.5q198 0 314 -101t116 -290v-197h-705v-112q0 -116 72.5 -182t204.5 -66q125 0 193.5 56.5t74.5 150.5h158q-9 -164 -121 -254t-305 -90q-202 0 -318 103t-116 292zM268 1239v221h140v-221h-140zM276 604h545v80 q0 119 -72 181.5t-198 62.5q-128 0 -201.5 -62.5t-73.5 -181.5v-80zM688 1239v221h139v-221h-139z" />
<glyph unicode="&#xec;" horiz-adv-x="733" d="M57 1516h166l207 -328h-127zM102 0v137h195v770h-195v137h355v-907h194v-137h-549z" />
<glyph unicode="&#xed;" horiz-adv-x="733" d="M102 0v137h195v770h-195v137h355v-907h194v-137h-549zM262 1188l207 328h168l-246 -328h-129z" />
<glyph unicode="&#xee;" horiz-adv-x="733" d="M47 1188l221 328h156l221 -328h-147l-154 217l-154 -217h-143zM102 0v137h195v770h-195v137h355v-907h194v-137h-549z" />
<glyph unicode="&#xef;" horiz-adv-x="733" d="M102 0v137h195v770h-195v137h355v-907h194v-137h-549zM109 1239v221h139v-221h-139zM446 1239v221h140v-221h-140z" />
<glyph unicode="&#xf0;" d="M119 373v219q0 188 105.5 289.5t281.5 101.5q150 0 256 -70q-65 168 -195 295l-260 -116l-39 98l211 94q-101 77 -241 133l49 119q189 -70 331 -188l244 110l39 -100l-201 -90q137 -143 209 -335.5t72 -418.5v-141q0 -191 -116 -292t-316 -101t-315 101t-115 292z M276 362q0 -120 73 -182.5t200 -62.5q128 0 200 62.5t72 182.5v213q0 134 -68.5 202.5t-201.5 68.5q-128 0 -201.5 -62.5t-73.5 -181.5v-240z" />
<glyph unicode="&#xf1;" horiz-adv-x="1394" d="M102 0v137h195v770h-195v137h318l20 -118q106 139 328 139q185 0 288 -96t103 -285v-547h195v-137h-353v694q0 118 -69.5 176t-196.5 58t-202.5 -63t-75.5 -181v-547h194v-137h-549zM377 1307q59 113 110 157.5t109 44.5q42 0 84.5 -24t70.5 -52.5t59 -52.5t54 -24 q26 0 54 31t71 106l88 -53q-57 -114 -109 -158.5t-110 -44.5q-34 0 -67.5 15.5t-60 38t-50 45t-47 38t-43.5 15.5q-25 0 -53.5 -31t-69.5 -105z" />
<glyph unicode="&#xf2;" d="M119 373v301q0 190 115.5 290.5t316.5 100.5q198 0 314 -101t116 -290v-301q0 -191 -116 -292t-316 -101t-315 101t-115 292zM276 362q0 -120 73 -182.5t200 -62.5q128 0 200 62.5t72 182.5v322q0 119 -72 181.5t-198 62.5q-128 0 -201.5 -62.5t-73.5 -181.5v-322z M281 1516h165l207 -328h-127z" />
<glyph unicode="&#xf3;" d="M119 373v301q0 190 115.5 290.5t316.5 100.5q198 0 314 -101t116 -290v-301q0 -191 -116 -292t-316 -101t-315 101t-115 292zM276 362q0 -120 73 -182.5t200 -62.5q128 0 200 62.5t72 182.5v322q0 119 -72 181.5t-198 62.5q-128 0 -201.5 -62.5t-73.5 -181.5v-322z M444 1188l207 328h168l-246 -328h-129z" />
<glyph unicode="&#xf4;" d="M119 373v301q0 190 115.5 290.5t316.5 100.5q198 0 314 -101t116 -290v-301q0 -191 -116 -292t-316 -101t-315 101t-115 292zM250 1188l221 328h156l221 -328h-148l-153 217l-154 -217h-143zM276 362q0 -120 73 -182.5t200 -62.5q128 0 200 62.5t72 182.5v322 q0 119 -72 181.5t-198 62.5q-128 0 -201.5 -62.5t-73.5 -181.5v-322z" />
<glyph unicode="&#xf5;" d="M119 373v301q0 190 115.5 290.5t316.5 100.5q198 0 314 -101t116 -290v-301q0 -191 -116 -292t-316 -101t-315 101t-115 292zM199 1307q59 113 110 157.5t109 44.5q42 0 84.5 -24t70.5 -52.5t59 -52.5t54 -24q26 0 54 31t71 106l88 -53q-57 -114 -109 -158.5t-110 -44.5 q-34 0 -67.5 15.5t-60 38t-50 45t-47 38t-43.5 15.5q-25 0 -53.5 -31t-69.5 -105zM276 362q0 -120 73 -182.5t200 -62.5q128 0 200 62.5t72 182.5v322q0 119 -72 181.5t-198 62.5q-128 0 -201.5 -62.5t-73.5 -181.5v-322z" />
<glyph unicode="&#xf6;" d="M119 373v301q0 190 115.5 290.5t316.5 100.5q198 0 314 -101t116 -290v-301q0 -191 -116 -292t-316 -101t-315 101t-115 292zM268 1239v221h140v-221h-140zM276 362q0 -120 73 -182.5t200 -62.5q128 0 200 62.5t72 182.5v322q0 119 -72 181.5t-198 62.5 q-128 0 -201.5 -62.5t-73.5 -181.5v-322zM688 1239v221h139v-221h-139z" />
<glyph unicode="&#xf7;" horiz-adv-x="1048" d="M61 649v137h926v-137h-926zM436 135v252h178v-252h-178zM436 1051v249h178v-249h-178z" />
<glyph unicode="&#xf8;" d="M119 373v301q0 190 115.5 290.5t316.5 100.5q127 0 225 -45l96 168l93 -53l-99 -172q115 -103 115 -289v-301q0 -191 -116 -292t-316 -101q-125 0 -225 43l-97 -166l-92 53l98 170q-114 102 -114 293zM276 362q0 -88 37 -143l389 676q-59 33 -151 33q-128 0 -201.5 -62.5 t-73.5 -181.5v-322zM395 147q61 -30 154 -30q128 0 200 62.5t72 182.5v322q0 84 -37 139z" />
<glyph unicode="&#xf9;" horiz-adv-x="1343" d="M41 907v137h354v-692q0 -119 70 -177t197 -58q128 0 203 62.5t75 182.5v545h-195v137h353v-907h194v-137h-317l-21 121q-105 -141 -327 -141q-184 0 -287.5 96t-103.5 286v545h-195zM438 1516h166l207 -328h-127z" />
<glyph unicode="&#xfa;" horiz-adv-x="1343" d="M41 907v137h354v-692q0 -119 70 -177t197 -58q128 0 203 62.5t75 182.5v545h-195v137h353v-907h194v-137h-317l-21 121q-105 -141 -327 -141q-184 0 -287.5 96t-103.5 286v545h-195zM520 1188l207 328h168l-246 -328h-129z" />
<glyph unicode="&#xfb;" horiz-adv-x="1343" d="M41 907v137h354v-692q0 -119 70 -177t197 -58q128 0 203 62.5t75 182.5v545h-195v137h353v-907h194v-137h-317l-21 121q-105 -141 -327 -141q-184 0 -287.5 96t-103.5 286v545h-195zM367 1188l221 328h155l222 -328h-148l-153 217l-154 -217h-143z" />
<glyph unicode="&#xfc;" horiz-adv-x="1343" d="M41 907v137h354v-692q0 -119 70 -177t197 -58q128 0 203 62.5t75 182.5v545h-195v137h353v-907h194v-137h-317l-21 121q-105 -141 -327 -141q-184 0 -287.5 96t-103.5 286v545h-195zM387 1239v221h139v-221h-139zM807 1239v221h139v-221h-139z" />
<glyph unicode="&#xfd;" horiz-adv-x="1335" d="M31 907v137h508v-137h-181l316 -764l313 764h-180v137h498v-137h-160l-494 -1179h172v-138h-516v138h199l115 272h-54l-374 907h-162zM563 1188l207 328h168l-246 -328h-129z" />
<glyph unicode="&#xfe;" horiz-adv-x="1277" d="M102 -272h195v1650h-195v138h355v-576q107 125 311 125q183 0 287 -101.5t104 -289.5v-301q0 -188 -104.5 -290.5t-286.5 -102.5q-208 0 -311 118v-370h194v-138h-549v138zM457 373q0 -122 74 -189t202 -67q126 0 197 64t71 181v322q0 117 -70.5 180.5t-195.5 63.5 q-129 0 -203.5 -67t-74.5 -187v-301z" />
<glyph unicode="&#xff;" horiz-adv-x="1335" d="M31 907v137h508v-137h-181l316 -764l313 764h-180v137h498v-137h-160l-494 -1179h172v-138h-516v138h199l115 272h-54l-374 907h-162zM387 1239v221h139v-221h-139zM807 1239v221h139v-221h-139z" />
<glyph unicode="&#x152;" horiz-adv-x="2091" d="M123 494v446q0 246 146 380t399 134q254 0 395 -147v127h926v-410h-170v262h-586v-493h530v-148h-530v-498h586v263h170v-410h-926v127q-141 -147 -397 -147q-251 0 -397 135t-146 379zM293 494q0 -174 101 -270.5t282 -96.5q183 0 285 96.5t102 270.5v446 q0 174 -101 270.5t-282 96.5q-183 0 -285 -96.5t-102 -270.5v-446z" />
<glyph unicode="&#x153;" horiz-adv-x="1802" d="M119 373v301q0 190 114 290.5t310 100.5q249 0 358 -160q106 160 361 160q195 0 308 -100.5t113 -290.5v-197h-702v-112q0 -117 72 -182.5t204 -65.5q125 0 193 56.5t74 150.5h159q-10 -163 -120.5 -253.5t-296.5 -90.5q-255 0 -365 159q-105 -159 -360 -159 q-195 0 -308.5 101t-113.5 292zM276 362q0 -120 73 -182.5t200 -62.5q128 0 200 62.5t72 182.5v322q0 119 -72 181.5t-198 62.5q-128 0 -201.5 -62.5t-73.5 -181.5v-322zM981 604h545v80q0 119 -73.5 181.5t-199.5 62.5t-199 -62.5t-73 -181.5v-80z" />
<glyph unicode="&#x178;" horiz-adv-x="1443" d="M0 1286v148h549v-148h-180l362 -577l365 577h-199v148h547v-148h-168l-469 -737v-402h235v-147h-639v147h236v402l-469 737h-170zM412 1552v220h139v-220h-139zM893 1552v220h139v-220h-139z" />
<glyph unicode="&#x2c6;" horiz-adv-x="679" d="M41 1188l221 328h156l221 -328h-147l-154 217l-154 -217h-143z" />
<glyph unicode="&#x2dc;" horiz-adv-x="782" d="M41 1307q59 113 110 157.5t109 44.5q42 0 84.5 -24t70.5 -52.5t59 -52.5t54 -24q26 0 54 31t71 106l88 -53q-57 -114 -109 -158.5t-110 -44.5q-34 0 -67.5 15.5t-60 38t-50 45t-47 38t-43.5 15.5q-25 0 -53.5 -31t-69.5 -105z" />
<glyph unicode="&#x2000;" horiz-adv-x="932" />
<glyph unicode="&#x2001;" horiz-adv-x="1864" />
<glyph unicode="&#x2002;" horiz-adv-x="932" />
<glyph unicode="&#x2003;" horiz-adv-x="1864" />
<glyph unicode="&#x2004;" horiz-adv-x="621" />
<glyph unicode="&#x2005;" horiz-adv-x="466" />
<glyph unicode="&#x2006;" horiz-adv-x="310" />
<glyph unicode="&#x2007;" horiz-adv-x="310" />
<glyph unicode="&#x2008;" horiz-adv-x="233" />
<glyph unicode="&#x2009;" horiz-adv-x="372" />
<glyph unicode="&#x200a;" horiz-adv-x="103" />
<glyph unicode="&#x2010;" horiz-adv-x="530" d="M61 455v137h408v-137h-408z" />
<glyph unicode="&#x2011;" horiz-adv-x="530" d="M61 455v137h408v-137h-408z" />
<glyph unicode="&#x2012;" horiz-adv-x="530" d="M61 455v137h408v-137h-408z" />
<glyph unicode="&#x2013;" horiz-adv-x="1044" d="M10 455v137h1024v-137h-1024z" />
<glyph unicode="&#x2014;" horiz-adv-x="2068" d="M10 455v137h2048v-137h-2048z" />
<glyph unicode="&#x2018;" horiz-adv-x="466" d="M143 1147l62 487h119v-487h-181z" />
<glyph unicode="&#x2019;" horiz-adv-x="466" d="M143 1147v487h181l-62 -487h-119z" />
<glyph unicode="&#x201a;" horiz-adv-x="466" d="M143 -236v488h181l-62 -488h-119z" />
<glyph unicode="&#x201c;" horiz-adv-x="747" d="M143 1147l62 487h119v-487h-181zM426 1147l61 487h117v-487h-178z" />
<glyph unicode="&#x201d;" horiz-adv-x="747" d="M143 1147v487h181l-62 -487h-119zM426 1147v487h178l-61 -487h-117z" />
<glyph unicode="&#x201e;" horiz-adv-x="747" d="M143 -236v488h181l-62 -488h-119zM426 -236v488h178l-61 -488h-117z" />
<glyph unicode="&#x2022;" horiz-adv-x="622" d="M72 717q0 106 66.5 172.5t172.5 66.5t173 -66.5t67 -172.5t-67 -173t-173 -67t-172.5 67t-66.5 173z" />
<glyph unicode="&#x2026;" horiz-adv-x="1767" d="M143 0v252h181v-252h-181zM795 0v252h178v-252h-178zM1444 0v252h180v-252h-180z" />
<glyph unicode="&#x202f;" horiz-adv-x="372" />
<glyph unicode="&#x2039;" horiz-adv-x="526" d="M41 463v139l424 328v-162l-287 -236l287 -231v-166z" />
<glyph unicode="&#x203a;" horiz-adv-x="526" d="M51 135v164l289 233l-289 234v164l424 -328v-139z" />
<glyph unicode="&#x205f;" horiz-adv-x="466" />
<glyph unicode="&#x20ac;" horiz-adv-x="1406" d="M61 655v127h144v158q0 241 142 377.5t390 136.5q281 0 404 -160l20 140h133v-461h-170v8q0 153 -97.5 239.5t-268.5 86.5q-181 0 -282 -96.5t-101 -270.5v-158h473v-127h-473v-161q0 -174 101 -270.5t280 -96.5q172 0 270 86.5t98 241.5v6h170v-6q0 -225 -143.5 -350 t-394.5 -125q-258 0 -404.5 134.5t-146.5 379.5v161h-144z" />
<glyph unicode="&#x2122;" horiz-adv-x="1208" d="M51 1335v99h469v-99h-178v-438h-111v438h-180zM578 897v537h102l158 -271l155 271h103v-537h-105v354l-153 -266l-154 266v-354h-106z" />
<glyph unicode="&#x25fc;" horiz-adv-x="1044" d="M0 0v1044h1044v-1044h-1044z" />
</font>
</defs>
</svg>
